<mxfile host="app.diagrams.net" modified="2023-11-04T16:26:02.770Z" agent="Mozilla/5.0 (Windows NT 10.0; Win64; x64) AppleWebKit/537.36 (KHTML, like Gecko) Chrome/116.0.5845.933 YaBrowser/23.9.3.933 Yowser/2.5 Safari/537.36" version="22.0.8" etag="iUndE1ymCOHScRF3Rr8O" type="github">
  <diagram name="Страница — 1" id="zKT96YWZ9PQ_qWa-ZhKY">
    <mxGraphModel>
      <root>
        <mxCell id="0" />
        <mxCell id="1" parent="0" />
      </root>
    </mxGraphModel>
  </diagram>
</mxfile>
